<svg width="20" height="20" fill="none" xmlns="http://www.w3.org/2000/svg"><path d="M18.267 9.667C16.583 5.758 13.417 3.334 10 3.334S3.417 5.758 1.733 9.666a.833.833 0 000 .667c1.684 3.908 4.85 6.333 8.267 6.333s6.583-2.425 8.267-6.334a.834.834 0 000-.666zM10 15c-2.642 0-5.142-1.908-6.583-5C4.858 6.91 7.358 5 10 5c2.642 0 5.142 1.909 6.583 5-1.441 3.092-3.941 5-6.583 5zm0-8.333a3.333 3.333 0 100 6.667 3.333 3.333 0 000-6.667zm0 5a1.666 1.666 0 110-3.333 1.666 1.666 0 010 3.333z" fill="#6F6D70"/></svg>