<svg width="22" height="32" fill="none" xmlns="http://www.w3.org/2000/svg"><path d="M10.996 15.855a8.194 8.194 0 005.735-2.326c1.461-1.427 2.381-3.409 2.381-5.602 0-2.193-.92-4.175-2.38-5.602A8.194 8.194 0 0010.995 0 8.194 8.194 0 005.26 2.325C3.8 3.752 2.88 5.735 2.88 7.927c0 2.194.92 4.175 2.38 5.602a8.243 8.243 0 005.735 2.326zM8.4 5.365a3.706 3.706 0 012.597-1.058c1.028 0 1.948.397 2.597 1.057a3.536 3.536 0 011.082 2.537 3.447 3.447 0 01-1.082 2.537 3.706 3.706 0 01-2.597 1.057c-1.028 0-1.948-.397-2.597-1.057A3.536 3.536 0 017.317 7.9c0-.978.433-1.876 1.082-2.537z" fill="#fff"/><path d="M21.925 19.052l-2.38-3.17a.38.38 0 00-.568-.054c-2.246 1.876-5.005 3.092-7.98 3.092-2.977 0-5.736-1.216-7.981-3.092a.426.426 0 00-.569.053l-2.38 3.171a.393.393 0 00.054.502 16.968 16.968 0 006.763 3.224l-5.032 8.667c-.135.238.054.555.325.555H7.1c.162 0 .297-.08.351-.238L10.97 24.1l3.517 7.663c.054.132.19.238.352.238h4.923c.298 0 .46-.29.325-.555l-5.032-8.667c2.435-.555 4.761-1.612 6.763-3.224.217-.132.244-.343.108-.502z" fill="#fff"/></svg>