<svg width="12" height="16" fill="none" xmlns="http://www.w3.org/2000/svg"><path d="M6.193 7.848c1.1 0 2.093-.44 2.808-1.138a3.827 3.827 0 001.166-2.743c0-1.073-.45-2.044-1.166-2.742A4.011 4.011 0 006.193.086c-1.099 0-2.092.44-2.807 1.139A3.827 3.827 0 002.22 3.967c0 1.074.45 2.044 1.166 2.743a4.035 4.035 0 002.807 1.138zM4.922 2.712a1.814 1.814 0 011.271-.517c.504 0 .954.194 1.272.518.331.323.53.763.53 1.241 0 .492-.199.932-.53 1.242a1.814 1.814 0 01-1.272.518c-.503 0-.953-.194-1.271-.518a1.731 1.731 0 01-.53-1.242c0-.478.212-.918.53-1.242z" fill="#fff"/><path d="M11.544 9.414L10.379 7.86a.186.186 0 00-.279-.026c-1.099.92-2.45 1.516-3.907 1.516-1.456 0-2.807-.595-3.907-1.514a.209.209 0 00-.278.026L.843 9.414a.192.192 0 00.026.245 8.308 8.308 0 003.311 1.579L1.717 15.48c-.066.116.026.271.159.271h2.41c.08 0 .146-.038.172-.116l1.722-3.752 1.722 3.752a.188.188 0 00.172.116h2.41c.146 0 .226-.142.16-.271L8.18 11.238a8.137 8.137 0 003.311-1.579c.106-.064.12-.168.053-.245z" fill="#fff"/></svg>