<svg width="32" height="28" fill="none" xmlns="http://www.w3.org/2000/svg"><g clip-path="url(#clip0_128_1736)" fill="#fff"><path d="M29.674.312L1.252 11.602s-1.349.463-1.243 1.323c.107.86 1.2 1.258 1.2 1.258l7.145 2.441.011.01v-.01L25.522 5.581s.988-.613.956 0c0 0 .18.108-.35.613-.531.505-13.484 12.29-13.484 12.29l-.021.226 11.657 9.054c1.943.86 2.654-.936 2.654-.936L32 .99c0-1.72-2.336-.678-2.325-.678z"/><path d="M17.083 22.172l-4.619 4.269s-.36.28-.754.107l.882-7.924"/></g><defs><clipPath id="clip0_128_1736"><path fill="#fff" d="M0 0h32v28H0z"/></clipPath></defs></svg>