<svg width="13" height="11" fill="none" xmlns="http://www.w3.org/2000/svg"><g clip-path="url(#clip0_0_223)" fill="#fff"><path d="M11.654.123L.488 4.558s-.53.182-.488.52c.042.338.472.494.472.494l2.807.959.004.004v-.004l6.74-4.339s.388-.24.376 0c0 0 .07.043-.138.241-.208.199-5.297 4.829-5.297 4.829l-.008.088 4.58 3.557c.763.338 1.042-.367 1.042-.367L12.568.389c0-.676-.918-.266-.914-.266z"/><path d="M6.708 8.71l-1.815 1.677s-.141.11-.296.043l.346-3.114"/></g><defs><clipPath id="clip0_0_223"><path fill="#fff" transform="translate(-.003)" d="M0 0h12.571v11H0z"/></clipPath></defs></svg>