<svg width="14" height="13" fill="none" xmlns="http://www.w3.org/2000/svg"><path d="M11.305 2.038A6.228 6.228 0 006.875.214c-3.443 0-6.25 2.792-6.25 6.23 0 1.094.282 2.16.832 3.115l-.889 3.227 3.316-.856a6.19 6.19 0 002.991.758c3.443 0 6.264-2.793 6.264-6.23a6.166 6.166 0 00-1.834-4.42zm-1.001 6.917c-.142.407-.847.772-1.186.828a2.543 2.543 0 01-1.1-.07c-.254-.084-.579-.182-1.002-.365-1.764-.757-2.92-2.525-3.005-2.638-.085-.126-.72-.954-.72-1.81 0-.855.466-1.29.621-1.459a.622.622 0 01.466-.224h.338c.113 0 .254-.042.395.294.141.351.494 1.207.536 1.291a.336.336 0 01.015.309c-.057.126-.085.196-.17.295-.098.098-.183.224-.268.308-.084.084-.17.183-.07.351.098.168.451.744.973 1.207.663.603 1.242.785 1.411.87.17.084.282.07.381-.043.099-.126.437-.519.55-.687.113-.168.24-.14.395-.084.156.056 1.03.477 1.2.561.183.084.296.126.338.239.043.07.043.42-.098.827z" fill="#fff"/></svg>