<svg width="36" height="36" fill="none" xmlns="http://www.w3.org/2000/svg"><g clip-path="url(#clip0_84_136)"><path d="M18 36c9.941 0 18-8.059 18-18S27.941 0 18 0 0 8.059 0 18s8.059 18 18 18z" fill="#fff"/><path d="M23.588 16.734l-7.564-5.187c-.34-.247-.71-.37-.988-.37-.587 0-.926.463-.926 1.204v11.207c0 .772.34 1.204.895 1.204.309 0 .648-.123.988-.37l7.565-5.187c.494-.34.771-.772.771-1.266s-.247-.895-.74-1.235z" fill="#44584D"/></g><defs><clipPath id="clip0_84_136"><path fill="#fff" d="M0 0h36v36H0z"/></clipPath></defs></svg>