<svg width="86" height="23" viewBox="0 0 86 23" fill="none" xmlns="http://www.w3.org/2000/svg">
<rect width="86" height="23" rx="3" fill="white"/>
<g clip-path="url(#clip0_92_320)">
<path d="M17.4824 11.9859L17.473 11.9483C16.0877 7.60429 11.96 4.52027 11.7844 4.39176L11.2516 4L11.2861 4.65816C11.2861 4.68639 11.3832 7.23761 8.91037 9.35942C6.22438 11.6662 6.24002 13.5687 6.24631 14.5904L6.2495 14.7314C6.2495 17.5177 8.29425 19.601 11.2197 19.9444C11.0604 19.9194 10.8977 19.887 10.7345 19.8371C9.79108 19.5456 9.2395 18.8843 9.13292 17.9314L9.10787 17.7434C9.02324 17.0069 8.91355 16.0948 10.5245 14.3647C11.1263 13.7191 11.6497 13.0233 12.0822 12.2993L12.2985 11.9358L12.5836 12.2492C13.4362 13.18 14.0881 14.1202 14.5268 15.0354C14.9311 15.8441 14.9563 17.1228 14.9249 17.3955C14.7713 18.7871 13.7652 19.8245 12.4175 19.9749C12.3297 19.9849 12.1982 19.9947 12.0372 19.9982C12.0514 19.9983 12.0648 20 12.0791 20C15.2634 20 17.755 17.4393 17.755 14.1704C17.7551 13.3869 17.4918 12.0423 17.4824 11.9859Z" fill="#E30613"/>
</g>
<path d="M29.083 16.656C26.522 16.656 24.533 14.836 24.533 12.171C24.533 9.506 26.522 7.686 29.083 7.686C30.838 7.686 31.917 8.596 32.567 9.636L31.267 10.299C30.851 9.584 30.019 9.038 29.083 9.038C27.367 9.038 26.093 10.351 26.093 12.171C26.093 13.991 27.367 15.304 29.083 15.304C30.019 15.304 30.851 14.771 31.267 14.043L32.567 14.706C31.904 15.746 30.838 16.656 29.083 16.656ZM35.3053 16.5H33.7843V7.829H37.5933C39.4133 7.829 40.4273 9.077 40.4273 10.546C40.4273 12.015 39.4003 13.263 37.5933 13.263H35.3053V16.5ZM37.3853 11.924C38.2433 11.924 38.8673 11.378 38.8673 10.546C38.8673 9.714 38.2433 9.168 37.3853 9.168H35.3053V11.924H37.3853ZM45.7365 16.656C43.1365 16.656 41.3035 14.758 41.3035 12.171C41.3035 9.584 43.1365 7.686 45.7365 7.686C48.3365 7.686 50.1695 9.584 50.1695 12.171C50.1695 14.758 48.3365 16.656 45.7365 16.656ZM45.7365 15.304C47.4785 15.304 48.6095 13.952 48.6095 12.171C48.6095 10.377 47.4785 9.038 45.7365 9.038C43.9815 9.038 42.8635 10.377 42.8635 12.171C42.8635 13.952 43.9815 15.304 45.7365 15.304ZM52.5779 7.829V10.13C52.5779 11.378 53.1889 11.924 54.3329 11.924C55.0089 11.924 55.6459 11.794 56.1399 11.599V7.829H57.6609V16.5H56.1399V12.938C55.6329 13.12 54.8919 13.263 54.1769 13.263C52.0449 13.263 51.0569 12.015 51.0569 10.13V7.829H52.5779ZM67.058 16.5H65.537V12.717H61.026V16.5H59.505V7.829H61.026V11.378H65.537V7.829H67.058V16.5ZM72.9426 16.656C70.3426 16.656 68.5096 14.758 68.5096 12.171C68.5096 9.584 70.3426 7.686 72.9426 7.686C75.5426 7.686 77.3756 9.584 77.3756 12.171C77.3756 14.758 75.5426 16.656 72.9426 16.656ZM72.9426 15.304C74.6846 15.304 75.8156 13.952 75.8156 12.171C75.8156 10.377 74.6846 9.038 72.9426 9.038C71.1876 9.038 70.0696 10.377 70.0696 12.171C70.0696 13.952 71.1876 15.304 72.9426 15.304Z" fill="#E30613"/>
<defs>
<clipPath id="clip0_92_320">
<rect width="12" height="16" fill="white" transform="translate(6 4)"/>
</clipPath>
</defs>
</svg>
