<svg width="81" height="23" viewBox="0 0 81 23" fill="none" xmlns="http://www.w3.org/2000/svg">
<rect width="81.0004" height="23" rx="3" fill="white"/>
<g clip-path="url(#clip0_92_148)">
<path d="M17.9295 9.432C17.8691 9.30284 17.773 9.1936 17.6527 9.11708C17.5323 9.04057 17.3926 8.99995 17.25 9H13.9635L15.6705 5.58525C15.7277 5.47093 15.7546 5.34392 15.7489 5.21625C15.7431 5.08859 15.7048 4.96451 15.6377 4.8558C15.5705 4.74708 15.4767 4.65733 15.3651 4.59506C15.2535 4.53279 15.1278 4.50007 15 4.5H10.5C10.3663 4.49999 10.2351 4.53573 10.1198 4.60351C10.0045 4.67129 9.90951 4.76865 9.84453 4.8855L6.09453 11.6355C6.03104 11.7497 5.99848 11.8784 6.00005 12.0091C6.00163 12.1397 6.0373 12.2676 6.10353 12.3802C6.16975 12.4928 6.26424 12.5862 6.37764 12.651C6.49103 12.7159 6.6194 12.75 6.75003 12.75H10.3148L9.01803 18.5873C8.98107 18.7517 9.00056 18.9237 9.07335 19.0757C9.14615 19.2277 9.26801 19.3507 9.41928 19.425C9.52226 19.4752 9.63547 19.5009 9.75003 19.5C9.86009 19.5001 9.96881 19.4759 10.0685 19.4293C10.1682 19.3826 10.2563 19.3146 10.3268 19.23L17.8268 10.23C17.9179 10.1205 17.976 9.98727 17.9942 9.84594C18.0124 9.70462 17.99 9.56103 17.9295 9.432Z" fill="#FF7700"/>
</g>
<path d="M29.3044 16.5H24.9234V7.829H29.1874C30.7734 7.829 31.6574 8.817 31.6574 10.039C31.6574 11.131 30.9554 11.859 30.1494 12.028C31.0724 12.171 31.8264 13.094 31.8264 14.16C31.8264 15.499 30.9294 16.5 29.3044 16.5ZM28.8754 11.417C29.6554 11.417 30.0974 10.949 30.0974 10.299C30.0974 9.649 29.6554 9.168 28.8754 9.168H26.4444V11.417H28.8754ZM28.9404 15.161C29.7724 15.161 30.2664 14.706 30.2664 13.952C30.2664 13.302 29.8114 12.756 28.9404 12.756H26.4444V15.161H28.9404ZM41.1531 16.5H39.4241L38.7871 14.836H34.8091L34.1721 16.5H32.4431L35.8491 7.829H37.7471L41.1531 16.5ZM38.3581 13.497L36.7981 9.363L35.2381 13.497H38.3581ZM43.1401 16.5H41.2681L45.0511 11.924L41.5281 7.829H43.4131L46.4811 11.573V7.829H48.0021V11.573L51.0701 7.829H52.9551L49.4321 11.924L53.2151 16.5H51.3431L48.4311 12.847L48.0021 13.354V16.5H46.4811V13.354L46.0521 12.847L43.1401 16.5ZM61.7771 16.5H60.2561V12.717H55.7451V16.5H54.2241V7.829H55.7451V11.378H60.2561V7.829H61.7771V16.5ZM67.6617 16.656C65.0617 16.656 63.2287 14.758 63.2287 12.171C63.2287 9.584 65.0617 7.686 67.6617 7.686C70.2617 7.686 72.0947 9.584 72.0947 12.171C72.0947 14.758 70.2617 16.656 67.6617 16.656ZM67.6617 15.304C69.4037 15.304 70.5347 13.952 70.5347 12.171C70.5347 10.377 69.4037 9.038 67.6617 9.038C65.9067 9.038 64.7887 10.377 64.7887 12.171C64.7887 13.952 65.9067 15.304 67.6617 15.304Z" fill="#FF7700"/>
<defs>
<clipPath id="clip0_92_148">
<rect width="12.0004" height="16" fill="white" transform="translate(6 4)"/>
</clipPath>
</defs>
</svg>
