<svg width="81" height="23" viewBox="0 0 81 23" fill="none" xmlns="http://www.w3.org/2000/svg">
<rect width="81" height="23" rx="3" fill="white"/>
<g clip-path="url(#clip0_92_446)">
<path d="M14 4.125C12.4425 4.125 10.9199 4.58686 9.62489 5.45218C8.32985 6.31749 7.32049 7.5474 6.72445 8.98637C6.12841 10.4253 5.97246 12.0087 6.27632 13.5363C6.58018 15.0639 7.3302 16.4671 8.43154 17.5685C9.53288 18.6698 10.9361 19.4198 12.4637 19.7237C13.9913 20.0275 15.5747 19.8716 17.0136 19.2756C18.4526 18.6795 19.6825 17.6702 20.5478 16.3751C21.4131 15.0801 21.875 13.5575 21.875 12C21.8747 9.91152 21.0449 7.90868 19.5681 6.43191C18.0913 4.95513 16.0885 4.12534 14 4.125ZM16.8443 12.5343L13.0396 14.7331C12.9454 14.787 12.8388 14.8152 12.7303 14.815C12.6218 14.8147 12.5153 14.7859 12.4215 14.7314C12.3276 14.677 12.2497 14.5989 12.1956 14.5048C12.1415 14.4108 12.113 14.3042 12.1131 14.1957V9.80426C12.113 9.69577 12.1415 9.58917 12.1956 9.49515C12.2497 9.40113 12.3276 9.32298 12.4215 9.26855C12.5153 9.21412 12.6218 9.18531 12.7303 9.18502C12.8388 9.18473 12.9454 9.21297 13.0396 9.26689L16.8443 11.4657C16.9385 11.5195 17.0169 11.5972 17.0714 11.6911C17.1259 11.7849 17.1546 11.8915 17.1546 12C17.1546 12.1085 17.1259 12.2151 17.0714 12.3089C17.0169 12.4028 16.9385 12.4805 16.8443 12.5343Z" fill="#2C83C1"/>
</g>
<path d="M33.304 16.5H28.923V7.829H33.187C34.773 7.829 35.657 8.817 35.657 10.039C35.657 11.131 34.955 11.859 34.149 12.028C35.072 12.171 35.826 13.094 35.826 14.16C35.826 15.499 34.929 16.5 33.304 16.5ZM32.875 11.417C33.655 11.417 34.097 10.949 34.097 10.299C34.097 9.649 33.655 9.168 32.875 9.168H30.444V11.417H32.875ZM32.94 15.161C33.772 15.161 34.266 14.706 34.266 13.952C34.266 13.302 33.811 12.756 32.94 12.756H30.444V15.161H32.94ZM38.8217 16.5H37.3527V7.829H38.8737V13.848L43.3067 7.829H44.8667V16.5H43.3457V10.312L38.8217 16.5ZM46.1501 18.099V15.304C47.0861 15.2 47.5671 14.849 47.8661 12.288L48.3731 7.829H54.2621V15.161H55.0681V18.099H53.5471V16.5H47.6711V18.099H46.1501ZM49.3741 12.392C49.2181 13.744 48.8151 14.628 48.2301 15.161H52.7411V9.168H49.7381L49.3741 12.392ZM62.1716 16.5H56.2306V7.829H62.1716V9.168H57.7516V11.417H62.0806V12.756H57.7516V15.161H62.1716V16.5ZM67.7765 16.656C65.1765 16.656 63.3435 14.758 63.3435 12.171C63.3435 9.584 65.1765 7.686 67.7765 7.686C70.3765 7.686 72.2095 9.584 72.2095 12.171C72.2095 14.758 70.3765 16.656 67.7765 16.656ZM67.7765 15.304C69.5185 15.304 70.6495 13.952 70.6495 12.171C70.6495 10.377 69.5185 9.038 67.7765 9.038C66.0215 9.038 64.9035 10.377 64.9035 12.171C64.9035 13.952 66.0215 15.304 67.7765 15.304Z" fill="#2C83C1"/>
<defs>
<clipPath id="clip0_92_446">
<rect width="16" height="16" fill="white" transform="translate(6 4)"/>
</clipPath>
</defs>
</svg>
