<svg width="20" height="20" viewBox="0 0 20 20" fill="none" xmlns="http://www.w3.org/2000/svg">
<path d="M18.2667 9.66683C16.5833 5.7585 13.4167 3.3335 9.99999 3.3335C6.58333 3.3335 3.41666 5.7585 1.73333 9.66683C1.68744 9.77197 1.66376 9.88545 1.66376 10.0002C1.66376 10.1149 1.68744 10.2284 1.73333 10.3335C3.41666 14.2418 6.58333 16.6668 9.99999 16.6668C13.4167 16.6668 16.5833 14.2418 18.2667 10.3335C18.3125 10.2284 18.3362 10.1149 18.3362 10.0002C18.3362 9.88545 18.3125 9.77197 18.2667 9.66683ZM9.99999 15.0002C7.35833 15.0002 4.85833 13.0918 3.41666 10.0002C4.85833 6.9085 7.35833 5.00016 9.99999 5.00016C12.6417 5.00016 15.1417 6.9085 16.5833 10.0002C15.1417 13.0918 12.6417 15.0002 9.99999 15.0002ZM9.99999 6.66683C9.34072 6.66683 8.69626 6.86233 8.14809 7.2286C7.59993 7.59487 7.17269 8.11546 6.9204 8.72455C6.6681 9.33364 6.60209 10.0039 6.73071 10.6505C6.85933 11.2971 7.1768 11.891 7.64297 12.3572C8.10915 12.8234 8.70309 13.1408 9.34969 13.2694C9.9963 13.3981 10.6665 13.3321 11.2756 13.0798C11.8847 12.8275 12.4053 12.4002 12.7716 11.8521C13.1378 11.3039 13.3333 10.6594 13.3333 10.0002C13.3333 9.11611 12.9821 8.26826 12.357 7.64314C11.7319 7.01802 10.884 6.66683 9.99999 6.66683ZM9.99999 11.6668C9.67036 11.6668 9.34813 11.5691 9.07404 11.3859C8.79996 11.2028 8.58634 10.9425 8.4602 10.638C8.33405 10.3334 8.30104 9.99831 8.36535 9.67501C8.42966 9.35171 8.5884 9.05474 8.82148 8.82165C9.05457 8.58856 9.35154 8.42983 9.67484 8.36552C9.99815 8.30121 10.3333 8.33422 10.6378 8.46036C10.9423 8.58651 11.2026 8.80013 11.3858 9.07421C11.5689 9.34829 11.6667 9.67053 11.6667 10.0002C11.6667 10.4422 11.4911 10.8661 11.1785 11.1787C10.8659 11.4912 10.442 11.6668 9.99999 11.6668Z" fill="#6F6D70"/>
</svg>
