<svg width="22" height="32" viewBox="0 0 22 32" fill="none" xmlns="http://www.w3.org/2000/svg">
<path d="M10.9962 15.8546C13.2416 15.8546 15.2706 14.9562 16.7314 13.5293C18.1923 12.1024 19.1121 10.1205 19.1121 7.92731C19.1121 5.73409 18.1923 3.75226 16.7314 2.32535C15.2706 0.898429 13.2416 0 10.9962 0C8.75082 0 6.72188 0.898429 5.26102 2.32535C3.80017 3.75226 2.88037 5.73409 2.88037 7.92731C2.88037 10.1205 3.80017 12.1024 5.26102 13.5293C6.72188 14.9562 8.77787 15.8546 10.9962 15.8546ZM8.39913 5.36415C9.07545 4.70354 9.99525 4.30717 10.9962 4.30717C12.0242 4.30717 12.944 4.70354 13.5933 5.36415C14.2696 6.02476 14.6754 6.92319 14.6754 7.90089C14.6754 8.90502 14.2696 9.80344 13.5933 10.4376C12.917 11.0982 11.9972 11.4946 10.9962 11.4946C9.96819 11.4946 9.0484 11.0982 8.39913 10.4376C7.72281 9.77702 7.31701 8.87859 7.31701 7.90089C7.31701 6.92319 7.74986 6.02476 8.39913 5.36415Z" fill="white"/>
<path d="M21.9255 19.052L19.5448 15.8811C19.4096 15.6961 19.139 15.6697 18.9767 15.8282C16.7313 17.7044 13.9719 18.9199 10.9961 18.9199C8.02032 18.9199 5.26092 17.7044 3.01553 15.8282C2.85322 15.6961 2.58269 15.7225 2.44742 15.8811L0.0667713 19.052C-0.0414402 19.2105 -0.0143871 19.4219 0.120877 19.5541C2.12279 21.1395 4.44934 22.2229 6.8841 22.7778L1.85226 31.445C1.717 31.6829 1.90637 31.9999 2.17689 31.9999H7.10052C7.26284 31.9999 7.3981 31.9207 7.4522 31.7621L10.9691 24.0991L14.486 31.7621C14.5401 31.8942 14.6753 31.9999 14.8376 31.9999H19.7613C20.0588 31.9999 20.2212 31.7093 20.0859 31.445L15.0541 22.7778C17.4888 22.2229 19.8154 21.1659 21.8173 19.5541C22.0337 19.4219 22.0608 19.2105 21.9255 19.052Z" fill="white"/>
</svg>
