<svg width="12" height="16" viewBox="0 0 12 16" fill="none" xmlns="http://www.w3.org/2000/svg">
<path d="M6.19344 7.84827C7.2927 7.84827 8.28603 7.40843 9.00121 6.70986C9.71639 6.01129 10.1667 5.04106 10.1667 3.96734C10.1667 2.89361 9.71639 1.92338 9.00121 1.22481C8.28603 0.526242 7.2927 0.0864029 6.19344 0.0864029C5.09418 0.0864029 4.10088 0.526242 3.3857 1.22481C2.67052 1.92338 2.22021 2.89361 2.22021 3.96734C2.22021 5.04106 2.67052 6.01129 3.3857 6.70986C4.10088 7.40843 5.10742 7.84827 6.19344 7.84827ZM4.922 2.7125C5.25311 2.38909 5.70341 2.19504 6.19344 2.19504C6.69672 2.19504 7.14703 2.38909 7.46489 2.7125C7.79599 3.03591 7.99466 3.47575 7.99466 3.9544C7.99466 4.44598 7.79599 4.88582 7.46489 5.1963C7.13379 5.51971 6.68347 5.71376 6.19344 5.71376C5.69016 5.71376 5.23986 5.51971 4.922 5.1963C4.5909 4.87289 4.39224 4.43305 4.39224 3.9544C4.39224 3.47575 4.60414 3.03591 4.922 2.7125Z" fill="white"/>
<path d="M11.544 9.41355L10.3785 7.86118C10.3123 7.77062 10.1799 7.75769 10.1004 7.83531C9.00113 8.75379 7.65023 9.34887 6.19338 9.34887C4.73652 9.34887 3.38562 8.75379 2.28636 7.83531C2.20689 7.77062 2.07445 7.78356 2.00823 7.86118L0.842747 9.41355C0.789771 9.49117 0.803015 9.59466 0.869236 9.65934C1.8493 10.4355 2.9883 10.9659 4.18027 11.2376L1.71686 15.4807C1.65064 15.5972 1.74335 15.7524 1.87579 15.7524H4.28622C4.36569 15.7524 4.43191 15.7136 4.45839 15.636L6.18013 11.8844L7.90187 15.636C7.92836 15.7007 7.99458 15.7524 8.07404 15.7524H10.4845C10.6302 15.7524 10.7096 15.6101 10.6434 15.4807L8.17999 11.2376C9.37197 10.9659 10.511 10.4485 11.491 9.65934C11.597 9.59466 11.6102 9.49117 11.544 9.41355Z" fill="white"/>
</svg>
