<svg width="32" height="28" viewBox="0 0 32 28" fill="none" xmlns="http://www.w3.org/2000/svg">
<g clip-path="url(#clip0_128_1736)">
<path d="M29.6736 0.31227L1.25158 11.6026C1.25158 11.6026 -0.0967969 12.065 0.00937426 12.9252C0.115545 13.7854 1.20911 14.1832 1.20911 14.1832L8.35443 16.6241L8.36505 16.6349V16.6241L25.5223 5.58109C25.5223 5.58109 26.5097 4.96818 26.4779 5.58109C26.4779 5.58109 26.6583 5.68861 26.1275 6.19399C25.5966 6.69937 12.6437 18.4843 12.6437 18.4843L12.6225 18.7101L24.2801 27.7639C26.223 28.6241 26.9344 26.8284 26.9344 26.8284L31.9988 0.989689C31.9988 -0.730741 29.663 0.31227 29.6736 0.31227Z" fill="white"/>
<path d="M17.0827 22.1719L12.4643 26.4407C12.4643 26.4407 12.1033 26.7203 11.7104 26.5483L12.5917 18.6235" fill="white"/>
</g>
<defs>
<clipPath id="clip0_128_1736">
<rect width="32" height="28" fill="white"/>
</clipPath>
</defs>
</svg>
