<svg width="13" height="11" viewBox="0 0 13 11" fill="none" xmlns="http://www.w3.org/2000/svg">
<g clip-path="url(#clip0_0_223)">
<path d="M11.6542 0.122536L0.488395 4.55802C0.488395 4.55802 -0.0413233 4.73966 0.000386845 5.07761C0.042097 5.41555 0.471711 5.57184 0.471711 5.57184L3.2788 6.53075L3.28297 6.53498V6.53075L10.0233 2.19243C10.0233 2.19243 10.4112 1.95165 10.3987 2.19243C10.3987 2.19243 10.4696 2.23467 10.2611 2.43321C10.0525 2.63175 4.96389 7.26155 4.96389 7.26155L4.95555 7.35026L9.53532 10.9071C10.2986 11.245 10.5781 10.5396 10.5781 10.5396L12.5676 0.388665C12.5676 -0.287218 11.65 0.122536 11.6542 0.122536Z" fill="white"/>
<path d="M6.70782 8.71045L4.89343 10.3875C4.89343 10.3875 4.75162 10.4973 4.59729 10.4297L4.94348 7.31644" fill="white"/>
</g>
<defs>
<clipPath id="clip0_0_223">
<rect width="12.5714" height="11" fill="white" transform="translate(-0.0032959)"/>
</clipPath>
</defs>
</svg>
