<svg width="16" height="16" viewBox="0 0 16 16" fill="none" xmlns="http://www.w3.org/2000/svg">
<path d="M8 0.125C6.44248 0.125 4.91992 0.586861 3.62489 1.45218C2.32985 2.31749 1.32049 3.5474 0.724452 4.98637C0.128412 6.42534 -0.0275391 8.00874 0.276319 9.53634C0.580178 11.0639 1.3302 12.4671 2.43154 13.5685C3.53288 14.6698 4.93607 15.4198 6.46367 15.7237C7.99127 16.0275 9.57467 15.8716 11.0136 15.2756C12.4526 14.6795 13.6825 13.6702 14.5478 12.3751C15.4131 11.0801 15.875 9.55753 15.875 8C15.8747 5.91152 15.0449 3.90868 13.5681 2.43191C12.0913 0.955133 10.0885 0.125339 8 0.125ZM10.8443 8.53426L7.03958 10.7331C6.94545 10.787 6.83879 10.8152 6.7303 10.815C6.62181 10.8147 6.5153 10.7859 6.42146 10.7314C6.32761 10.677 6.24972 10.5989 6.1956 10.5048C6.14148 10.4108 6.11303 10.3042 6.1131 10.1957V5.80426C6.11303 5.69577 6.14148 5.58917 6.1956 5.49515C6.24972 5.40113 6.32761 5.32298 6.42145 5.26855C6.5153 5.21412 6.6218 5.18531 6.73029 5.18502C6.83878 5.18473 6.94543 5.21297 7.03957 5.26689L10.8443 7.46572C10.9385 7.51948 11.0169 7.59722 11.0714 7.69106C11.1259 7.78489 11.1546 7.89147 11.1546 7.99999C11.1546 8.10851 11.1259 8.21509 11.0714 8.30893C11.0169 8.40276 10.9385 8.4805 10.8443 8.53426Z" fill="#2C83C1"/>
</svg>
