<svg width="14" height="13" viewBox="0 0 14 13" fill="none" xmlns="http://www.w3.org/2000/svg">
<path d="M11.3053 2.03827C10.1201 0.859695 8.55401 0.214287 6.87499 0.214287C3.43231 0.214287 0.624553 3.00638 0.624553 6.44388C0.624553 7.53827 0.90674 8.60459 1.457 9.55867L0.568115 12.7857L3.88381 11.9298C4.80092 12.435 5.8309 12.6875 6.87499 12.6875C10.3177 12.6875 13.1395 9.89541 13.1395 6.45791C13.1395 4.77424 12.4905 3.21684 11.3053 2.03827ZM10.3036 8.95536C10.1625 9.36225 9.457 9.72704 9.11838 9.78316C8.82208 9.82526 8.44113 9.83929 8.01785 9.71301C7.76388 9.62883 7.43937 9.53061 7.01609 9.34822C5.25242 8.59056 4.09545 6.82271 4.0108 6.71046C3.92614 6.58419 3.29122 5.75638 3.29122 4.90051C3.29122 4.04464 3.75683 3.6097 3.91203 3.44133C4.06723 3.25893 4.26476 3.21684 4.37764 3.21684C4.49051 3.21684 4.6175 3.21684 4.71626 3.21684C4.82914 3.21684 4.97023 3.17475 5.11133 3.51148C5.25242 3.86225 5.60515 4.71811 5.64748 4.8023C5.68981 4.88648 5.71803 4.99873 5.66159 5.11097C5.60515 5.23725 5.57693 5.3074 5.49228 5.40561C5.39351 5.50383 5.30886 5.6301 5.2242 5.71429C5.13954 5.79847 5.05489 5.89669 5.15365 6.06505C5.25242 6.23342 5.60515 6.80867 6.1272 7.27169C6.79034 7.875 7.36882 8.0574 7.53813 8.14158C7.70745 8.22577 7.82032 8.21174 7.91909 8.09949C8.01785 7.97322 8.35648 7.58036 8.46935 7.41199C8.58222 7.24362 8.70921 7.27169 8.86441 7.32781C9.01961 7.38393 9.89439 7.80485 10.0637 7.88903C10.2471 7.97322 10.36 8.01531 10.4023 8.12755C10.4447 8.19771 10.4447 8.54847 10.3036 8.95536Z" fill="white"/>
</svg>
