<svg width="36" height="36" viewBox="0 0 36 36" fill="none" xmlns="http://www.w3.org/2000/svg">
<g clip-path="url(#clip0_84_136)">
<path d="M18 36C27.9411 36 36 27.9411 36 18C36 8.05887 27.9411 0 18 0C8.05887 0 0 8.05887 0 18C0 27.9411 8.05887 36 18 36Z" fill="white"/>
<path d="M23.5884 16.7342L16.024 11.5473C15.6844 11.3003 15.3139 11.1768 15.036 11.1768C14.4494 11.1768 14.1098 11.6399 14.1098 12.3809V23.5884C14.1098 24.3603 14.4494 24.7925 15.0052 24.7925C15.3139 24.7925 15.6535 24.669 15.9932 24.422L23.5575 19.2351C24.0515 18.8955 24.3294 18.4632 24.3294 17.9692C24.3294 17.4752 24.0824 17.0738 23.5884 16.7342Z" fill="#44584D"/>
</g>
<defs>
<clipPath id="clip0_84_136">
<rect width="36" height="36" fill="white"/>
</clipPath>
</defs>
</svg>
