<svg width="86" height="23" fill="none" xmlns="http://www.w3.org/2000/svg"><rect width="86" height="23" rx="3" fill="#fff"/><g clip-path="url(#clip0_92_320)"><path d="M17.482 11.986l-.009-.038c-1.385-4.344-5.513-7.428-5.689-7.556L11.252 4l.034.658c0 .028.097 2.58-2.376 4.701-2.686 2.307-2.67 4.21-2.664 5.231l.003.141c0 2.787 2.045 4.87 4.97 5.213a3.51 3.51 0 01-.484-.107c-.944-.291-1.495-.953-1.602-1.906l-.025-.188c-.085-.736-.194-1.648 1.416-3.378a12.264 12.264 0 001.558-2.066l.216-.363.286.313c.852.931 1.504 1.871 1.943 2.786.404.81.43 2.088.398 2.36-.154 1.392-1.16 2.43-2.508 2.58a4.13 4.13 0 01-.38.023l.042.002c3.184 0 5.676-2.56 5.676-5.83 0-.783-.263-2.128-.273-2.184z" fill="#E30613"/></g><path d="M29.083 16.656c-2.561 0-4.55-1.82-4.55-4.485s1.989-4.485 4.55-4.485c1.755 0 2.834.91 3.484 1.95l-1.3.663a2.574 2.574 0 00-2.184-1.261c-1.716 0-2.99 1.313-2.99 3.133s1.274 3.133 2.99 3.133c.936 0 1.768-.533 2.184-1.261l1.3.663c-.663 1.04-1.729 1.95-3.484 1.95zm6.222-.156h-1.52V7.829h3.808c1.82 0 2.834 1.248 2.834 2.717s-1.027 2.717-2.834 2.717h-2.288V16.5zm2.08-4.576c.858 0 1.482-.546 1.482-1.378 0-.832-.624-1.378-1.482-1.378h-2.08v2.756h2.08zm8.352 4.732c-2.6 0-4.434-1.898-4.434-4.485 0-2.587 1.834-4.485 4.434-4.485s4.432 1.898 4.432 4.485c0 2.587-1.832 4.485-4.432 4.485zm0-1.352c1.741 0 2.872-1.352 2.872-3.133 0-1.794-1.13-3.133-2.873-3.133-1.755 0-2.872 1.339-2.872 3.133 0 1.781 1.117 3.133 2.873 3.133zm6.84-7.475v2.301c0 1.248.612 1.794 1.756 1.794.676 0 1.313-.13 1.807-.325v-3.77h1.52V16.5h-1.52v-3.562a6.194 6.194 0 01-1.963.325c-2.132 0-3.12-1.248-3.12-3.133V7.829h1.52zM67.059 16.5h-1.521v-3.783h-4.511V16.5h-1.521V7.829h1.521v3.549h4.511V7.829h1.521V16.5zm5.885.156c-2.6 0-4.433-1.898-4.433-4.485 0-2.587 1.833-4.485 4.433-4.485 2.6 0 4.433 1.898 4.433 4.485 0 2.587-1.833 4.485-4.433 4.485zm0-1.352c1.742 0 2.873-1.352 2.873-3.133 0-1.794-1.131-3.133-2.873-3.133-1.755 0-2.873 1.339-2.873 3.133 0 1.781 1.118 3.133 2.873 3.133z" fill="#E30613"/><defs><clipPath id="clip0_92_320"><path fill="#fff" transform="translate(6 4)" d="M0 0h12v16H0z"/></clipPath></defs></svg>