<svg width="81" height="23" fill="none" xmlns="http://www.w3.org/2000/svg"><rect width="81" height="23" rx="3" fill="#fff"/><g clip-path="url(#clip0_92_148)"><path d="M17.93 9.432A.75.75 0 0017.25 9h-3.287l1.708-3.415A.75.75 0 0015 4.5h-4.5a.75.75 0 00-.655.386l-3.75 6.75a.75.75 0 00.655 1.114h3.565l-1.297 5.837a.75.75 0 001.309.643l7.5-9a.75.75 0 00.102-.798z" fill="#F70"/></g><path d="M29.304 16.5h-4.38V7.829h4.263c1.586 0 2.47.988 2.47 2.21 0 1.092-.702 1.82-1.508 1.989.923.143 1.677 1.066 1.677 2.132 0 1.339-.897 2.34-2.522 2.34zm-.429-5.083c.78 0 1.222-.468 1.222-1.118 0-.65-.442-1.131-1.222-1.131h-2.43v2.249h2.43zm.065 3.744c.832 0 1.326-.455 1.326-1.209 0-.65-.455-1.196-1.326-1.196h-2.496v2.405h2.496zM41.153 16.5h-1.729l-.637-1.664H34.81l-.637 1.664h-1.729l3.406-8.671h1.898l3.406 8.671zm-2.795-3.003l-1.56-4.134-1.56 4.134h3.12zM43.14 16.5h-1.872l3.783-4.576-3.523-4.095h1.885l3.068 3.744V7.829h1.521v3.744l3.068-3.744h1.885l-3.523 4.095 3.783 4.576h-1.872l-2.912-3.653-.429.507V16.5h-1.52v-3.146l-.43-.507L43.14 16.5zm18.637 0h-1.52v-3.783h-4.512V16.5h-1.52V7.829h1.52v3.549h4.511V7.829h1.521V16.5zm5.885.156c-2.6 0-4.433-1.898-4.433-4.485 0-2.587 1.833-4.485 4.433-4.485 2.6 0 4.433 1.898 4.433 4.485 0 2.587-1.833 4.485-4.433 4.485zm0-1.352c1.742 0 2.873-1.352 2.873-3.133 0-1.794-1.131-3.133-2.873-3.133-1.755 0-2.873 1.339-2.873 3.133 0 1.781 1.118 3.133 2.873 3.133z" fill="#F70"/><defs><clipPath id="clip0_92_148"><path fill="#fff" transform="translate(6 4)" d="M0 0h12v16H0z"/></clipPath></defs></svg>