<svg width="81" height="23" fill="none" xmlns="http://www.w3.org/2000/svg"><rect width="81" height="23" rx="3" fill="#fff"/><g clip-path="url(#clip0_92_446)"><path d="M14 4.125a7.875 7.875 0 100 15.75 7.875 7.875 0 000-15.75zm2.844 8.41l-3.804 2.198a.62.62 0 01-.927-.537V9.804a.619.619 0 01.927-.537l3.804 2.199a.615.615 0 010 1.068z" fill="#2C83C1"/></g><path d="M33.304 16.5h-4.381V7.829h4.264c1.586 0 2.47.988 2.47 2.21 0 1.092-.702 1.82-1.508 1.989.923.143 1.677 1.066 1.677 2.132 0 1.339-.897 2.34-2.522 2.34zm-.429-5.083c.78 0 1.222-.468 1.222-1.118 0-.65-.442-1.131-1.222-1.131h-2.431v2.249h2.431zm.065 3.744c.832 0 1.326-.455 1.326-1.209 0-.65-.455-1.196-1.326-1.196h-2.496v2.405h2.496zm5.882 1.339h-1.47V7.829h1.522v6.019l4.433-6.019h1.56V16.5h-1.521v-6.188L38.822 16.5zm7.328 1.599v-2.795c.936-.104 1.417-.455 1.716-3.016l.507-4.459h5.89v7.332h.805v2.938h-1.52V16.5H47.67v1.599h-1.52zm3.224-5.707c-.156 1.352-.559 2.236-1.144 2.769h4.511V9.168h-3.003l-.364 3.224zM62.172 16.5H56.23V7.829h5.94v1.339h-4.42v2.249h4.33v1.339h-4.33v2.405h4.42V16.5zm5.605.156c-2.6 0-4.434-1.898-4.434-4.485 0-2.587 1.834-4.485 4.433-4.485 2.6 0 4.434 1.898 4.434 4.485 0 2.587-1.834 4.485-4.433 4.485zm0-1.352c1.742 0 2.873-1.352 2.873-3.133 0-1.794-1.132-3.133-2.874-3.133-1.754 0-2.873 1.339-2.873 3.133 0 1.781 1.118 3.133 2.873 3.133z" fill="#2C83C1"/><defs><clipPath id="clip0_92_446"><path fill="#fff" transform="translate(6 4)" d="M0 0h16v16H0z"/></clipPath></defs></svg>